<svg id="Layer_1" data-name="Layer 1" xmlns="http://www.w3.org/2000/svg" viewBox="0 0 124.6 204.97"><defs><style>.cls-1{fill:#23a072;}.cls-2{fill:#606060;}.cls-3{fill:none;stroke:#2b805d;stroke-miterlimit:10;}</style></defs><path class="cls-1" d="M93,89.71A45.33,45.33,0,0,1,22,70l-8.75,3.28A55,55,0,0,0,101.59,96ZM65,0A54.78,54.78,0,0,0,26.12,16.16l7,5.65a45.31,45.31,0,0,1,75,20.14h0l9.19-4.14h0A55,55,0,0,0,65,0Z" transform="translate(-1 0)"/><path class="cls-2" d="M109.84,54.45A45.31,45.31,0,1,1,108.09,42h0A45.14,45.14,0,0,1,109.84,54.45Z" transform="translate(-1 0)"/><path class="cls-3" d="M39.38,63.71l1.85-21.55s3.5-8.29,7.36,0L50.25,69s1.11,3.69,3.32,0l3.5-37.21c-.55-1.09,4.24-8.09,7.09-.55C64.37,32,69,79.61,69,79.61s1,3.31,2.21,0c0-.46,4.7-37.58,4.7-37.58-.08-1.82,4.33-8.11,6.26-.19.41,1.8,2.76,26.71,2.76,26.71s1.38,4.24,3-.27c.55-.56,1.84-18.15,1.84-18.15" transform="translate(-1 0)"/><path class="cls-1" d="M18.49,182.43c-1.24-3.94-3-6.66-7.26-6.66a4.16,4.16,0,0,0-4.29,4c0,.13,0,.27,0,.4,0,2.88,2,4.28,5.87,6,5.94,2.79,8.92,4.81,8.92,9.31,0,6.24-5.8,9.43-11.27,9.43a18.62,18.62,0,0,1-8.23-1.92c-.34-2-1-5.72-1.24-8l2-.33c1.24,4.34,3.66,7.87,8.5,7.87a4.57,4.57,0,0,0,4.83-4.28c0-.11,0-.22,0-.33,0-3.06-1.87-4.62-5.53-6.39C5.93,189.32,2,187.15,2,182.26s4.29-8.76,10.76-8.76a37.05,37.05,0,0,1,6.64.88c.21,1.63.69,5.91,1,7.54Z" transform="translate(-1 0)"/><path class="cls-1" d="M92,174.63c-4,.38-4.4.62-4.4,4.62v19.06c0,4,.44,4.13,4.4,4.55v1.34H79v-1.34c4-.47,4.41-.56,4.41-4.55v-9.52H66.88v9.52c0,3.94.39,4.08,4.35,4.55v1.34H58.32v-1.34c3.92-.42,4.36-.56,4.36-4.55v-19.1c0-4-.43-4.23-4.36-4.62v-1.33H71.24v1.37c-3.91.34-4.35.67-4.35,4.62v7.55H83.43v-7.55c0-3.95-.53-4.28-4.41-4.62V173.3H92Z" transform="translate(-1 0)"/><path class="cls-1" d="M125.6,196.56a59.28,59.28,0,0,1-2.65,7.17,44.15,44.15,0,0,1-8.86,1.14c-11.56,0-17.46-7.55-17.46-15.87,0-9.7,7.5-16.4,18.33-16.4a50.94,50.94,0,0,1,9.14,1.09c.2,2.14.54,5,.92,7.37l-1.49.33c-1-3.18-2.14-5.14-4.6-6.13a13.39,13.39,0,0,0-5.08-.9c-8,0-12.19,5.77-12.19,13.64,0,9.17,4.84,15.07,12.67,15.07,4.9,0,7.36-2.24,9.79-7Z" transform="translate(-1 0)"/><path class="cls-1" d="M49.4,193.34c-2,.22-2.27.72-3.18,2-.73,1-1.47,2.12-2.47,3.59a38.72,38.72,0,0,1,4.7,5.37l-.16.3a7.07,7.07,0,0,1-3.4-1.11c-.34-.38-1.66-1.63-2.55-2.55-2,2.63-3.84,3.53-5.87,3.53A5.16,5.16,0,0,1,31,199.72v-.09c0-2.53,1.5-3.53,4.15-5.19A5.09,5.09,0,0,1,33,190.59a4.45,4.45,0,0,1,4.58-4.29h0A3.9,3.9,0,0,1,41.67,190a.31.31,0,0,0,0,.1,3.17,3.17,0,0,1-1.23,2.37,23.44,23.44,0,0,1-2.38,1.52c.91.77,3.18,2.62,5,4.33a20.33,20.33,0,0,0,1.71-3.1c.53-1.25.3-1.61-1.71-1.83v-.79h6.33Zm-12.23,9.29c2,0,3-.59,4.46-2.41a59.92,59.92,0,0,0-5.76-5.16c-2,1.27-2.51,2.44-2.51,3.84A3.65,3.65,0,0,0,37,202.63Zm.09-15.38c-1.39,0-2.24,1.05-2.24,2.66,0,1.38.71,2.22,2.38,3.53,1.54-1.09,2.21-1.92,2.21-3.35,0-1.6-.83-2.88-2.35-2.88Z" transform="translate(-1 0)"/></svg>