<svg id="Layer_1" data-name="Layer 1" xmlns="http://www.w3.org/2000/svg" viewBox="0 0 124.6 173.66"><defs><style>.cls-1,.cls-3{fill:none;}.cls-2{fill:#23a072;}.cls-3{stroke:#2b805d;stroke-miterlimit:10;}.cls-4{opacity:0.5;}</style></defs><path class="cls-1" d="M93.44,89.51l4.35,5.69c-.93.78-1.88,1.52-2.86,2.24L94.2,98l-1,.66c-.62.42-1.24.82-1.88,1.21s-1.3.78-2,1.14c-.33.19-.67.37-1,.54l-.88.46a52.86,52.86,0,0,1-15.88,5l-1.22.17c-.26,0-.51.07-.77.09s-.79.09-1.19.12-.71.06-1.07.09l-1,.06-1.36,0-1.37,0h0l-1.37,0c-.42,0-.83,0-1.25,0a52.43,52.43,0,0,1-6.79-.77c-.44-.07-.87-.16-1.3-.25l-1.29-.28q-1.29-.3-2.55-.66l-.86-.25a53,53,0,0,1-11-4.78l-1-.58a52.93,52.93,0,0,1-7.34-5.34c-.32-.28-.64-.56-.95-.85s-.61-.55-.91-.84l0,0c-.31-.29-.61-.59-.91-.89s-.6-.6-.89-.91A53.06,53.06,0,0,1,19.45,84c-.18-.26-.35-.53-.52-.79q-1.35-2.09-2.5-4.3c-.16-.3-.32-.61-.46-.92-.41-.8-.78-1.61-1.14-2.44-.1-.22-.19-.44-.28-.66-.29-.69-.56-1.38-.82-2.08s-.61-1.72-.88-2.6-.46-1.52-.66-2.29c-.14-.52-.27-1-.39-1.58h0l8-2.64.35-.05A45.31,45.31,0,0,1,108.09,42a44.73,44.73,0,0,1,1.74,11.84c0,.22,0,.44,0,.66A45.22,45.22,0,0,1,93.59,89.18Z" transform="translate(-1.34 -1.26)"/><path class="cls-2" d="M31.08,23.85l-6.79-5.19A52.94,52.94,0,0,0,10.46,54.41a53.62,53.62,0,0,0,1.34,12h0l8-2.64.35-.05A45.41,45.41,0,0,1,31.08,23.85Zm85.72,30-7-.1c0,.22,0,.44,0,.66A45.22,45.22,0,0,1,93.59,89.18l-.15.33,4.35,5.69a53.06,53.06,0,0,0,19-40.73v-.11C116.81,54.2,116.81,54.05,116.8,53.89Z" transform="translate(-1.34 -1.26)"/><path class="cls-1" d="M109.84,54.45A45.31,45.31,0,1,1,108.09,42a44.73,44.73,0,0,1,1.74,11.84C109.84,54,109.84,54.23,109.84,54.45Z" transform="translate(-1.34 -1.26)"/><path class="cls-1" d="M109.84,54.45A45.31,45.31,0,1,1,108.09,42,45.32,45.32,0,0,1,109.84,54.45Z" transform="translate(-1.34 -1.26)"/><path class="cls-3" d="M39.38,63.71l1.85-21.55s3.5-8.29,7.36,0L50.25,69s1.11,3.69,3.32,0l3.5-37.21c-.55-1.09,4.24-8.09,7.09-.55C64.37,32,69,79.61,69,79.61s1,3.31,2.21,0c0-.46,4.7-37.58,4.7-37.58-.08-1.82,4.33-8.11,6.26-.19.41,1.8,2.76,26.71,2.76,26.71s1.38,4.24,3-.27c.55-.56,1.84-18.15,1.84-18.15" transform="translate(-1.34 -1.26)"/><path class="cls-2" d="M18.82,152.38c-1.24-3.95-3-6.66-7.26-6.66a4.16,4.16,0,0,0-4.28,4,2.54,2.54,0,0,0,0,.39c0,2.89,2,4.28,5.87,6,5.94,2.79,8.91,4.81,8.91,9.31,0,6.24-5.8,9.44-11.26,9.44A18.47,18.47,0,0,1,2.58,173c-.34-2-1-5.71-1.24-8l2-.34c1.25,4.35,3.66,7.88,8.51,7.88a4.57,4.57,0,0,0,4.83-4.28V168c0-3.05-1.87-4.61-5.53-6.38-4.83-2.31-8.81-4.48-8.81-9.37s4.29-8.76,10.77-8.76a36.29,36.29,0,0,1,6.64.88c.2,1.63.68,5.91,1,7.54Z" transform="translate(-1.34 -1.26)"/><path class="cls-2" d="M92.33,144.58c-4,.38-4.41.62-4.41,4.61v19.06c0,4,.44,4.14,4.41,4.56v1.34h-13v-1.34c4-.47,4.4-.57,4.4-4.56v-9.51H67.21v9.51c0,3.95.39,4.09,4.36,4.56v1.34H58.66v-1.34c3.91-.42,4.35-.57,4.35-4.56v-19.1c0-4-.43-4.23-4.35-4.61v-1.33H71.58v1.37c-3.92.33-4.36.67-4.36,4.61v7.56H83.76v-7.56c0-3.94-.53-4.28-4.4-4.61v-1.33h13Z" transform="translate(-1.34 -1.26)"/><path class="cls-2" d="M125.93,166.5a57.78,57.78,0,0,1-2.65,7.18,44.69,44.69,0,0,1-8.85,1.14c-11.56,0-17.46-7.56-17.46-15.88,0-9.69,7.49-16.39,18.33-16.39a51.14,51.14,0,0,1,9.14,1.08c.19,2.15.54,5,.92,7.38l-1.5.33c-1-3.19-2.13-5.14-4.6-6.13a13.16,13.16,0,0,0-5.08-.9c-8,0-12.18,5.77-12.18,13.63,0,9.18,4.83,15.07,12.67,15.07,4.89,0,7.35-2.23,9.79-7Z" transform="translate(-1.34 -1.26)"/><path class="cls-2" d="M49.73,163.29c-2,.22-2.27.71-3.18,2-.72,1-1.47,2.11-2.46,3.59a38,38,0,0,1,4.69,5.37l-.15.3a7.12,7.12,0,0,1-3.41-1.12c-.33-.37-1.65-1.62-2.54-2.54-2,2.63-3.84,3.53-5.88,3.53a5.16,5.16,0,0,1-5.48-4.79s0-.06,0-.09c0-2.53,1.5-3.53,4.15-5.19a5.08,5.08,0,0,1-2.15-3.85,4.44,4.44,0,0,1,4.58-4.29h0A3.89,3.89,0,0,1,42,159.9v.1a3.14,3.14,0,0,1-1.22,2.37,24.6,24.6,0,0,1-2.38,1.52c.91.77,3.18,2.61,5,4.32a19.41,19.41,0,0,0,1.71-3.09c.53-1.25.31-1.61-1.71-1.83v-.79h6.33Zm-12.22,9.29c2,0,3-.6,4.45-2.41A60,60,0,0,0,36.21,165c-2,1.28-2.52,2.44-2.52,3.85a3.66,3.66,0,0,0,3.6,3.73Zm.09-15.39c-1.39,0-2.24,1.06-2.24,2.67,0,1.38.71,2.22,2.37,3.53C39.28,162.3,40,161.46,40,160c0-1.61-.84-2.89-2.35-2.89Z" transform="translate(-1.34 -1.26)"/><path class="cls-1" d="M15.25,12.15c0,.06,0,.36-.12.87l-.69-.44A2.27,2.27,0,0,0,15.25,12.15Z" transform="translate(-1.34 -1.26)"/><g class="cls-4"><path class="cls-2" d="M97.79,95.2c-.93.78-1.88,1.52-2.86,2.24L94.2,98l-1,.66c-.62.42-1.24.82-1.88,1.21s-1.3.78-2,1.14c-.33.19-.67.37-1,.54l-.88.46a52.86,52.86,0,0,1-15.88,5l-1.22.17c-.26,0-.51.07-.77.09s-.79.09-1.19.12-.71.06-1.07.09l-1,.06-1.36,0-1.37,0h0l-1.37,0c-.42,0-.83,0-1.25,0a52.43,52.43,0,0,1-6.79-.77c-.44-.07-.87-.16-1.3-.25l-1.29-.28q-1.29-.3-2.55-.66l-.86-.25a53,53,0,0,1-11-4.78l-1-.58a52.93,52.93,0,0,1-7.34-5.34c-.32-.28-.64-.56-.95-.85s-.61-.55-.91-.84l0,0c-.31-.29-.61-.59-.91-.89s-.6-.6-.89-.91A53.06,53.06,0,0,1,19.45,84c-.18-.26-.35-.53-.52-.79q-1.35-2.09-2.5-4.3c-.16-.3-.32-.61-.46-.92-.41-.8-.78-1.61-1.14-2.44-.1-.22-.19-.44-.28-.66-.29-.69-.56-1.38-.82-2.08s-.61-1.72-.88-2.6-.46-1.52-.66-2.29c-.14-.52-.27-1-.39-1.58h0l8-2.64.35-.05A45.31,45.31,0,0,0,93.59,89.18l-.15.33Z" transform="translate(-1.34 -1.26)"/><path class="cls-2" d="M116.8,53.89l-7-.1A44.73,44.73,0,0,0,108.09,42a45.32,45.32,0,0,0-77-18.1l-6.79-5.19a54.37,54.37,0,0,1,8.11-7.27c.35-.25.7-.5,1.06-.74s.75-.51,1.13-.76l1.15-.73c.38-.24.77-.47,1.17-.7s.78-.46,1.18-.67l1.21-.65c.81-.42,1.63-.81,2.47-1.19.41-.19.83-.37,1.26-.55l1.27-.52,1.3-.48c.43-.16.87-.31,1.3-.45,1-.33,2-.62,3-.89l.94-.24.25-.06c.4-.1.81-.2,1.22-.28l.95-.2.82-.16c.36-.06.72-.13,1.09-.18s.64-.1,1-.15c.58-.08,1.17-.16,1.77-.22.42-.05.83-.09,1.25-.12,1.5-.13,3-.19,4.55-.19A53.18,53.18,0,0,1,114.76,39.8a52.6,52.6,0,0,1,1.5,7c.06.42.12.85.17,1.27.09.76.17,1.53.22,2.3,0,.48.07,1,.09,1.45,0,.12,0,.25,0,.38C116.78,52.75,116.8,53.32,116.8,53.89Z" transform="translate(-1.34 -1.26)"/></g></svg>