<svg id="Layer_1" data-name="Layer 1" xmlns="http://www.w3.org/2000/svg" viewBox="0 0 127.27 206.26"><defs><style>.cls-1{fill:#fff;}.cls-2{fill:#606060;}.cls-3{fill:none;stroke:#fff;stroke-miterlimit:10;}</style></defs><path class="cls-1" d="M108.67,118a45.33,45.33,0,0,1-71-19.73l-8.75,3.28a55,55,0,0,0,88.36,22.76ZM80.73,28.29A54.8,54.8,0,0,0,41.81,44.45l7,5.65a45.3,45.3,0,0,1,75,20.14h0L133,66.1h0A55,55,0,0,0,80.73,28.29Z" transform="translate(-15.69 -28.29)"/><path class="cls-2" d="M125.53,82.74a45.31,45.31,0,1,1-1.75-12.5h0A45.14,45.14,0,0,1,125.53,82.74Z" transform="translate(-15.69 -28.29)"/><path class="cls-3" d="M55.07,92l1.85-21.55s3.5-8.29,7.36,0L65.94,97.3s1.11,3.69,3.32,0l3.5-37.21C72.21,59,77,52,79.85,59.54c.21.75,4.79,48.36,4.79,48.36s1,3.31,2.21,0c0-.46,4.7-37.58,4.7-37.58-.08-1.82,4.33-8.11,6.26-.19.41,1.8,2.76,26.71,2.76,26.71s1.38,4.24,3-.27c.55-.56,1.84-18.15,1.84-18.15" transform="translate(-15.69 -28.29)"/><path class="cls-1" d="M33.56,211.11c-1.27-4.1-3.11-6.92-7.42-6.92a4.28,4.28,0,0,0-4.37,4.59c0,3,2,4.45,6,6.28,6.07,2.9,9.11,5,9.11,9.68,0,6.49-5.93,9.81-11.51,9.81a18.64,18.64,0,0,1-8.41-2c-.35-2.05-1-5.94-1.27-8.27l2-.35c1.27,4.52,3.74,8.19,8.69,8.19a4.7,4.7,0,0,0,4.94-4.8c0-3.18-1.91-4.8-5.65-6.64-4.94-2.4-9-4.66-9-9.74s4.38-9.11,11-9.11a36.7,36.7,0,0,1,6.78.91c.21,1.7.7,6.15,1.06,7.84Z" transform="translate(-15.69 -28.29)"/><path class="cls-1" d="M108.66,203c-4.1.4-4.5.65-4.5,4.8v19.82c0,4.15.45,4.3,4.5,4.74v1.39H95.41v-1.39c4.11-.49,4.5-.59,4.5-4.74v-9.89H83v9.89c0,4.1.4,4.25,4.45,4.74v1.39H74.26v-1.39c4-.44,4.45-.59,4.45-4.74V207.76c0-4.15-.44-4.4-4.45-4.8v-1.38h13.2V203c-4,.35-4.45.7-4.45,4.8v7.86h16.9v-7.86c0-4.1-.54-4.45-4.5-4.8v-1.38h13.25Z" transform="translate(-15.69 -28.29)"/><path class="cls-1" d="M143,225.8a62.63,62.63,0,0,1-2.71,7.46,44.82,44.82,0,0,1-9.05,1.19c-11.81,0-17.84-7.86-17.84-16.51,0-10.08,7.66-17.05,18.73-17.05a51.23,51.23,0,0,1,9.34,1.13c.2,2.23.55,5.19.94,7.67l-1.53.34c-1-3.31-2.18-5.34-4.7-6.37a13.37,13.37,0,0,0-5.19-.94c-8.15,0-12.45,6-12.45,14.18,0,9.54,4.94,15.67,12.95,15.67,5,0,7.51-2.32,10-7.27Z" transform="translate(-15.69 -28.29)"/><path class="cls-1" d="M65.14,222.46c-2,.23-2.32.74-3.25,2.12-.74,1.07-1.5,2.2-2.52,3.73a39.91,39.91,0,0,1,4.8,5.59l-.16.31a7.19,7.19,0,0,1-3.48-1.16c-.34-.39-1.69-1.69-2.6-2.65-2.06,2.74-3.92,3.67-6,3.67A5.3,5.3,0,0,1,46.32,229c0-2.63,1.53-3.67,4.24-5.4a5.3,5.3,0,0,1-2.2-4,4.57,4.57,0,0,1,4.69-4.46,4,4,0,0,1,4.2,3.9A3.28,3.28,0,0,1,56,221.5a23.17,23.17,0,0,1-2.43,1.58c.93.8,3.25,2.72,5.06,4.5a20.74,20.74,0,0,0,1.75-3.22c.54-1.3.31-1.67-1.75-1.9v-.82h6.47Zm-12.49,9.66c2,0,3.05-.62,4.55-2.51a62.19,62.19,0,0,0-5.88-5.37c-2,1.33-2.57,2.54-2.57,4A3.78,3.78,0,0,0,52.65,232.12Zm.09-16c-1.42,0-2.29,1.1-2.29,2.77,0,1.44.73,2.31,2.43,3.67,1.58-1.13,2.26-2,2.26-3.48C55.11,217.41,54.29,216.08,52.74,216.08Z" transform="translate(-15.69 -28.29)"/></svg>